<svg xmlns="http://www.w3.org/2000/svg" version="1.1" xmlns:xlink="http://www.w3.org/1999/xlink" width="512" height="512" x="0" y="0" viewBox="0 0 511.997 511.997" style="enable-background:new 0 0 512 512" xml:space="preserve" class=""><g><path d="m256.01 378.426 38.768-50.14h86.566V169.622H130.68v158.665h86.562zm40.002-144.801h30.002v30h-30.002zm-55.003 0h30.002v30h-30.002zm-24.135 30h-30.002v-30h30.002z" fill="#0280d8" opacity="1" data-original="#000000" class=""></path><path d="M412.37 450.104H309.578v-31.813H248.03c-25.138 0-45.589 20.45-45.589 45.588v2.451c0 25.138 20.451 45.589 45.589 45.589h61.548v-31.814H442.37V365.876l18.435-.08c28.228 0 51.192-22.965 51.192-51.191v-72.918c0-28.228-22.964-51.192-51.192-51.192H442.37v-33.572C442.37 70.439 372.01.079 285.526.079h-59.033c-86.484 0-156.844 70.359-156.844 156.844v33.717H51.192C22.964 190.639 0 213.604 0 241.831v72.918c0 28.228 22.964 51.192 51.192 51.192H99.65V156.922c0-69.941 56.902-126.844 126.844-126.844h59.033c69.942 0 126.844 56.902 126.844 126.844v293.182z" fill="#0280d8" opacity="1" data-original="#000000" class=""></path></g></svg>