<svg width="112" height="112" viewBox="0 0 112 112" fill="none" xmlns="http://www.w3.org/2000/svg">
<g filter="url(#filter0_d_299_44)">
<circle cx="56" cy="52" r="36" fill="#0280D8"/>
<path d="M70.4687 63.1255C69.5505 60.4135 68.4075 56.9727 63.9688 56.9727H61.5653C62.283 56.3985 62.9341 55.7454 63.4473 54.9805H63.9688C66.7149 54.9805 68.9493 52.7461 68.9493 50C68.9493 48.5581 68.9493 47.4574 68.9493 46.0156C68.9493 38.8756 63.1401 33 56.0001 33C48.6974 33 42.9523 39.0705 43.0519 46.1839C43.0507 48.3774 43.0509 47.5799 43.0509 50C43.0509 52.7461 45.2852 54.9805 48.0313 54.9805H48.5528C49.0661 55.7454 49.7172 56.3985 50.4348 56.9727H48.0313C43.5927 56.9727 42.4497 60.4135 41.5314 63.1246C40.8821 65.0409 42.3871 67 44.3913 67H67.6089C69.6199 67 71.116 65.0338 70.4687 63.1255ZM47.1359 45.0195H46.0391C45.7195 45.0195 45.4172 45.0832 45.1282 45.1766C45.586 39.1846 50.4979 34.9922 56.0001 34.9922C61.7632 34.9922 66.4904 39.5336 66.9153 45.19C66.6139 45.0875 66.2966 45.0195 65.961 45.0195H64.8643C64.3614 40.5494 60.6025 36.9844 56.0001 36.9844C51.3977 36.9844 47.6388 40.5494 47.1359 45.0195ZM56.0001 64.3434L52.0153 58.9648H59.9848L56.0001 64.3434ZM56.0001 56.9727C52.1558 56.9727 49.0274 53.8443 49.0274 50V49.0039H52.0157C53.6506 49.0039 55.0915 48.2014 56.0001 46.981C56.9087 48.2014 58.3495 49.0039 59.9845 49.0039H62.9727V50C62.9727 51.0735 62.7086 52.079 62.2733 52.9883H57.9923C57.4417 52.9883 56.9962 53.4338 56.9962 53.9844C56.9962 54.5349 57.4417 54.9738 57.9923 54.9738H60.8644C59.6068 56.2023 57.8925 56.9727 56.0001 56.9727Z" fill="white"/>
</g>
<defs>
<filter id="filter0_d_299_44" x="0" y="0" width="112" height="112" filterUnits="userSpaceOnUse" color-interpolation-filters="sRGB">
<feFlood flood-opacity="0" result="BackgroundImageFix"/>
<feColorMatrix in="SourceAlpha" type="matrix" values="0 0 0 0 0 0 0 0 0 0 0 0 0 0 0 0 0 0 127 0" result="hardAlpha"/>
<feOffset dy="4"/>
<feGaussianBlur stdDeviation="10"/>
<feComposite in2="hardAlpha" operator="out"/>
<feColorMatrix type="matrix" values="0 0 0 0 0.00784314 0 0 0 0 0.501961 0 0 0 0 0.847059 0 0 0 0.23 0"/>
<feBlend mode="normal" in2="BackgroundImageFix" result="effect1_dropShadow_299_44"/>
<feBlend mode="normal" in="SourceGraphic" in2="effect1_dropShadow_299_44" result="shape"/>
</filter>
</defs>
</svg>
