<svg width="72" height="72" viewBox="0 0 72 72" fill="none" xmlns="http://www.w3.org/2000/svg">
<circle cx="36" cy="36" r="36" fill="#B4EDF9" fill-opacity="0.23"/>
<g clip-path="url(#clip0_302_95)">
<path d="M33.8682 57.388L26.3923 35.7836H13L33.8682 57.388Z" fill="#0280D8"/>
<path d="M42.8136 35.7836H29.1187L35.9884 55.6363L42.8136 35.7836Z" fill="#0280D8"/>
<path d="M29.8071 33.207H42.0376L35.794 24.7917L29.8071 33.207Z" fill="#0280D8"/>
<path d="M45.2461 33.207H58.8638L48.6734 23.4277C48.1201 22.8967 47.3829 22.6002 46.6159 22.6002H37.3765L45.2461 33.207Z" fill="#0280D8"/>
<path d="M26.6454 33.207L34.1913 22.6002H25.1409C24.3648 22.6002 23.6194 22.9039 23.0643 23.4463L13.0742 33.207H26.6454Z" fill="#0280D8"/>
<path d="M45.5383 35.7836L38.1069 57.3997L59.0002 35.7836H45.5383Z" fill="#0280D8"/>
</g>
<defs>
<clipPath id="clip0_302_95">
<rect width="46" height="46" fill="white" transform="translate(13 17)"/>
</clipPath>
</defs>
</svg>
