<svg width="171" height="171" viewBox="0 0 171 171" fill="none" xmlns="http://www.w3.org/2000/svg">
<g clip-path="url(#clip0_304_114)">
<path d="M85.5 57C79.8632 57 74.3531 58.6715 69.6663 61.8031C64.9795 64.9347 61.3265 69.3858 59.1694 74.5935C57.0123 79.8012 56.448 85.5316 57.5476 91.0601C58.6473 96.5885 61.3617 101.667 65.3475 105.653C69.3333 109.638 74.4115 112.353 79.9399 113.452C85.4684 114.552 91.1988 113.988 96.4065 111.831C101.614 109.673 106.065 106.021 109.197 101.334C112.329 96.6469 114 91.1368 114 85.5C114 77.9413 110.997 70.6922 105.653 65.3475C100.308 60.0027 93.0587 57 85.5 57ZM85.5 99.75C82.6816 99.75 79.9265 98.9143 77.5831 97.3484C75.2397 95.7826 73.4133 93.5571 72.3347 90.9532C71.2562 88.3494 70.974 85.4842 71.5238 82.72C72.0737 79.9557 73.4308 77.4166 75.4237 75.4237C77.4166 73.4308 79.9557 72.0736 82.72 71.5238C85.4842 70.974 88.3494 71.2562 90.9533 72.3347C93.5571 73.4133 95.7826 75.2397 97.3485 77.5831C98.9143 79.9265 99.75 82.6816 99.75 85.5C99.75 89.2793 98.2487 92.9039 95.5763 95.5763C92.9039 98.2487 89.2794 99.75 85.5 99.75Z" fill="#0280D8"/>
<path d="M151.72 99.0375L148.556 97.2135C149.981 89.4646 149.981 81.5211 148.556 73.7723L151.72 71.9482C154.153 70.5447 156.285 68.6758 157.995 66.4482C159.706 64.2206 160.961 61.6778 161.689 58.9652C162.416 56.2526 162.603 53.4232 162.237 50.6385C161.871 47.8538 160.961 45.1685 159.557 42.7358C158.154 40.303 156.285 38.1705 154.057 36.4601C151.83 34.7496 149.287 33.4947 146.574 32.7669C143.862 32.0391 141.032 31.8528 138.248 32.2185C135.463 32.5842 132.778 33.4947 130.345 34.8982L127.174 36.7294C121.186 31.613 114.304 27.6468 106.875 25.0301V21.375C106.875 15.706 104.623 10.2692 100.614 6.26059C96.6059 2.252 91.169 0 85.5 0C79.831 0 74.3942 2.252 70.3856 6.26059C66.377 10.2692 64.125 15.706 64.125 21.375V25.0301C56.6964 27.6562 49.8169 31.6321 43.833 36.7579L40.6482 34.9125C35.735 32.078 29.8971 31.3113 24.4187 32.7811C18.9403 34.251 14.2702 37.8369 11.4357 42.75C8.60116 47.6631 7.83448 53.501 9.3043 58.9795C10.7741 64.4579 14.36 69.128 19.2732 71.9625L22.4367 73.7865C21.0124 81.5354 21.0124 89.4789 22.4367 97.2277L19.2732 99.0518C14.36 101.886 10.7741 106.556 9.3043 112.035C7.83448 117.513 8.60116 123.351 11.4357 128.264C14.2702 133.177 18.9403 136.763 24.4187 138.233C29.8971 139.703 35.735 138.936 40.6482 136.102L43.8188 134.271C49.8092 139.388 56.6935 143.354 64.125 145.97V149.625C64.125 155.294 66.377 160.731 70.3856 164.739C74.3942 168.748 79.831 171 85.5 171C91.169 171 96.6059 168.748 100.614 164.739C104.623 160.731 106.875 155.294 106.875 149.625V145.97C114.304 143.344 121.183 139.368 127.167 134.242L130.352 136.08C135.265 138.915 141.103 139.682 146.581 138.212C152.06 136.742 156.73 133.156 159.564 128.243C162.399 123.33 163.166 117.492 161.696 112.013C160.226 106.535 156.64 101.865 151.727 99.0304L151.72 99.0375ZM133.565 72.1335C135.978 80.8763 135.978 90.1094 133.565 98.8522C133.144 100.374 133.24 101.992 133.838 103.454C134.437 104.915 135.504 106.136 136.871 106.925L144.595 111.385C146.232 112.33 147.427 113.887 147.917 115.712C148.407 117.538 148.151 119.484 147.206 121.121C146.261 122.759 144.705 123.954 142.879 124.444C141.053 124.933 139.107 124.678 137.47 123.733L129.732 119.258C128.363 118.465 126.77 118.151 125.202 118.364C123.635 118.576 122.183 119.305 121.075 120.434C114.733 126.908 106.744 131.527 97.9688 133.793C96.4371 134.187 95.08 135.079 94.1113 136.329C93.1425 137.579 92.6171 139.116 92.6179 140.697V149.625C92.6179 151.515 91.8672 153.327 90.531 154.663C89.1948 155.999 87.3826 156.75 85.4929 156.75C83.6032 156.75 81.791 155.999 80.4548 154.663C79.1186 153.327 78.3679 151.515 78.3679 149.625V140.704C78.3687 139.123 77.8433 137.586 76.8745 136.336C75.9058 135.086 74.5487 134.194 73.017 133.8C64.2415 131.525 56.2542 126.896 49.9178 120.412C48.81 119.283 47.358 118.555 45.7907 118.342C44.2233 118.129 42.6297 118.444 41.2609 119.237L33.5374 123.704C32.7268 124.179 31.8302 124.49 30.8992 124.617C29.9682 124.744 29.0212 124.686 28.1128 124.446C27.2044 124.206 26.3524 123.788 25.606 123.218C24.8596 122.647 24.2334 121.934 23.7636 121.12C23.2938 120.306 22.9895 119.408 22.8684 118.476C22.7473 117.544 22.8117 116.598 23.0579 115.691C23.3041 114.784 23.7272 113.935 24.3029 113.192C24.8786 112.45 25.5956 111.828 26.4124 111.364L34.1359 106.903C35.5035 106.114 36.5703 104.893 37.1687 103.432C37.7671 101.971 37.8632 100.353 37.4419 98.8309C35.0291 90.088 35.0291 80.855 37.4419 72.1121C37.8556 70.5937 37.7549 68.9809 37.1556 67.5257C36.5562 66.0705 35.4919 64.8546 34.1288 64.068L26.4053 59.6078C24.7679 58.6629 23.5729 57.1063 23.0832 55.2804C22.5935 53.4545 22.8491 51.5088 23.794 49.8714C24.7388 48.234 26.2954 47.039 28.1213 46.5493C29.9472 46.0596 31.8929 46.3153 33.5303 47.2601L41.268 51.7346C42.633 52.5292 44.2233 52.8476 45.789 52.64C47.3547 52.4323 48.8071 51.7104 49.9178 50.5875C56.2597 44.1133 64.2492 39.494 73.0242 37.2281C74.5605 36.8331 75.9212 35.9367 76.8904 34.6809C77.8597 33.4252 78.3822 31.8818 78.375 30.2955V21.375C78.375 19.4853 79.1257 17.6731 80.4619 16.3369C81.7981 15.0007 83.6104 14.25 85.5 14.25C87.3897 14.25 89.202 15.0007 90.5382 16.3369C91.8744 17.6731 92.625 19.4853 92.625 21.375V30.2955C92.6242 31.8769 93.1496 33.4137 94.1184 34.6637C95.0872 35.9137 96.4443 36.8058 97.9759 37.1996C106.754 39.4736 114.744 44.1029 121.082 50.5875C122.19 51.7166 123.642 52.4449 125.209 52.6578C126.777 52.8706 128.37 52.5559 129.739 51.7631L137.463 47.2958C138.273 46.8205 139.17 46.5103 140.101 46.3831C141.032 46.2558 141.979 46.3139 142.887 46.554C143.796 46.7942 144.648 47.2117 145.394 47.7825C146.14 48.3533 146.767 49.066 147.236 49.8798C147.706 50.6935 148.011 51.5922 148.132 52.524C148.253 53.4558 148.188 54.4024 147.942 55.3092C147.696 56.216 147.273 57.0652 146.697 57.8078C146.121 58.5504 145.405 59.1718 144.588 59.6362L136.864 64.0965C135.504 64.8853 134.442 66.102 133.846 67.5571C133.249 69.0121 133.15 70.6237 133.565 72.1406V72.1335Z" fill="#0280D8"/>
</g>
<defs>
<clipPath id="clip0_304_114">
<rect width="171" height="171" fill="white"/>
</clipPath>
</defs>
</svg>
