<svg width="112" height="112" viewBox="0 0 112 112" fill="none" xmlns="http://www.w3.org/2000/svg">
<g filter="url(#filter0_d_299_32)">
<circle cx="56" cy="52" r="36" fill="#0280D8"/>
<g clip-path="url(#clip0_299_32)">
<path d="M57.9179 51.2569C58.3326 51.0448 58.7946 50.9326 59.274 50.9326C60.0683 50.9326 60.8151 51.241 61.3781 51.8011L62.59 50.5893C65.5891 51.6405 69.0578 50.9675 71.4554 48.5701C73.4727 46.5528 74.2683 43.7772 73.8436 41.1609C73.7968 40.8728 73.5928 40.6352 73.3151 40.5455C73.0375 40.4557 72.7326 40.5287 72.5263 40.7351L70.7269 42.5346C69.2615 44 66.8854 44 65.42 42.5346C63.9545 41.0692 63.9545 38.6931 65.42 37.2277L67.2195 35.4283C67.4259 35.2218 67.4995 34.917 67.4096 34.6392C67.3198 34.3613 67.0818 34.1578 66.7935 34.111C64.1774 33.6863 61.4017 34.4819 59.3845 36.4992C56.9513 38.9324 56.2965 42.4684 57.4156 45.4976L54.7871 48.126L57.9179 51.2569Z" fill="white"/>
<path d="M53.1281 56.0198L50.0105 52.9022L39.109 63.8036C37.6915 65.2211 37.6915 67.5193 39.109 68.9368C40.5265 70.3543 42.8247 70.3543 44.2422 68.9368L53.64 59.5391C52.6921 58.5862 52.5213 57.1476 53.1281 56.0198Z" fill="white"/>
<path d="M60.0815 53.1092C59.8586 52.8863 59.5663 52.7748 59.2742 52.7748C58.982 52.7748 58.6897 52.8863 58.4668 53.1092L57.816 53.76L46.2234 42.1675L46.7653 41.6256C47.259 41.132 47.1977 40.3132 46.635 39.8989L41.9052 36.4155C41.4507 36.0809 40.8199 36.1284 40.4208 36.5275L38.4126 38.5359C38.0134 38.935 37.9659 39.5659 38.3005 40.0203L41.7838 44.7501C42.1981 45.3127 43.0164 45.3746 43.5105 44.8804L44.0524 44.3384L55.6449 55.931L54.9483 56.6276C54.5024 57.0735 54.5024 57.7964 54.9483 58.2423L65.6427 68.9367C67.0602 70.3542 69.3584 70.3542 70.7759 68.9367C72.1934 67.5192 72.1934 65.221 70.7759 63.8035L60.0815 53.1092Z" fill="white"/>
</g>
</g>
<defs>
<filter id="filter0_d_299_32" x="0" y="0" width="112" height="112" filterUnits="userSpaceOnUse" color-interpolation-filters="sRGB">
<feFlood flood-opacity="0" result="BackgroundImageFix"/>
<feColorMatrix in="SourceAlpha" type="matrix" values="0 0 0 0 0 0 0 0 0 0 0 0 0 0 0 0 0 0 127 0" result="hardAlpha"/>
<feOffset dy="4"/>
<feGaussianBlur stdDeviation="10"/>
<feComposite in2="hardAlpha" operator="out"/>
<feColorMatrix type="matrix" values="0 0 0 0 0.00784314 0 0 0 0 0.501961 0 0 0 0 0.847059 0 0 0 0.23 0"/>
<feBlend mode="normal" in2="BackgroundImageFix" result="effect1_dropShadow_299_32"/>
<feBlend mode="normal" in="SourceGraphic" in2="effect1_dropShadow_299_32" result="shape"/>
</filter>
<clipPath id="clip0_299_32">
<rect width="36" height="36" fill="white" transform="translate(38 34)"/>
</clipPath>
</defs>
</svg>
