<svg width="72" height="72" viewBox="0 0 72 72" fill="none" xmlns="http://www.w3.org/2000/svg">
<circle cx="36" cy="36" r="36" fill="#B4EDF9" fill-opacity="0.23"/>
<g clip-path="url(#clip0_299_32)">
<path d="M37.9179 35.2569C38.3326 35.0448 38.7946 34.9326 39.274 34.9326C40.0683 34.9326 40.8151 35.241 41.3781 35.8011L42.59 34.5893C45.5891 35.6405 49.0578 34.9675 51.4554 32.5701C53.4727 30.5528 54.2683 27.7772 53.8436 25.1609C53.7968 24.8728 53.5928 24.6352 53.3151 24.5455C53.0375 24.4557 52.7326 24.5287 52.5263 24.7351L50.7269 26.5346C49.2615 28 46.8854 28 45.42 26.5346C43.9545 25.0692 43.9545 22.6931 45.42 21.2277L47.2195 19.4283C47.4259 19.2218 47.4995 18.917 47.4096 18.6392C47.3198 18.3613 47.0818 18.1578 46.7935 18.111C44.1774 17.6863 41.4017 18.4819 39.3845 20.4992C36.9513 22.9324 36.2965 26.4684 37.4156 29.4976L34.7871 32.126L37.9179 35.2569Z" fill="#0280D8"/>
<path d="M33.1281 40.0198L30.0105 36.9022L19.109 47.8036C17.6915 49.2211 17.6915 51.5193 19.109 52.9368C20.5265 54.3543 22.8247 54.3543 24.2422 52.9368L33.64 43.5391C32.6921 42.5862 32.5213 41.1476 33.1281 40.0198Z" fill="#0280D8"/>
<path d="M40.0815 37.1092C39.8586 36.8863 39.5663 36.7748 39.2742 36.7748C38.982 36.7748 38.6897 36.8863 38.4668 37.1092L37.816 37.76L26.2234 26.1675L26.7653 25.6256C27.259 25.132 27.1977 24.3132 26.635 23.8989L21.9052 20.4155C21.4507 20.0809 20.8199 20.1284 20.4208 20.5275L18.4126 22.5359C18.0134 22.935 17.9659 23.5659 18.3005 24.0203L21.7838 28.7501C22.1981 29.3127 23.0164 29.3746 23.5105 28.8804L24.0524 28.3384L35.6449 39.931L34.9483 40.6276C34.5024 41.0735 34.5024 41.7964 34.9483 42.2423L45.6427 52.9367C47.0602 54.3542 49.3584 54.3542 50.7759 52.9367C52.1934 51.5192 52.1934 49.221 50.7759 47.8035L40.0815 37.1092Z" fill="#0280D8"/>
</g>
<defs>
<clipPath id="clip0_299_32">
<rect width="36" height="36" fill="white" transform="translate(18 18)"/>
</clipPath>
</defs>
</svg>
