<svg xmlns="http://www.w3.org/2000/svg" version="1.1" xmlns:xlink="http://www.w3.org/1999/xlink" width="512" height="512" x="0" y="0" viewBox="0 0 512.013 512.013" style="enable-background:new 0 0 512 512" xml:space="preserve" class=""><g><path d="M393.579 274.371c-15.53 0-30.371 2.999-43.98 8.442l-15.23-15.23a157.318 157.318 0 0 0 11.243-27.101h26.873c8.284 0 15-6.716 15-15V161.6c0-8.284-6.716-15-15-15h-26.873a157.304 157.304 0 0 0-11.243-27.101l19.014-19.014c5.859-5.858 5.852-15.361 0-21.214L308.203 34.1c-5.858-5.857-15.355-5.856-21.212.001l-19.012 19.012a157.31 157.31 0 0 0-27.095-11.244V15c0-8.284-6.716-15-15-15h-63.889c-8.284 0-15 6.716-15 15v26.864a157.112 157.112 0 0 0-27.104 11.248L100.88 34.101c-5.859-5.859-15.361-5.853-21.213 0L34.495 79.272c-5.859 5.858-5.852 15.36 0 21.213L53.509 119.5a157.502 157.502 0 0 0-11.246 27.101H15.394c-8.284 0-15 6.716-15 15v63.881c0 8.284 6.716 15 15 15h26.869a157.423 157.423 0 0 0 11.246 27.101l-19.014 19.015c-5.858 5.857-5.853 15.359 0 21.213l45.172 45.171c5.859 5.859 15.361 5.852 21.213 0l19.014-19.014a157.437 157.437 0 0 0 27.101 11.246v26.869c0 8.284 6.716 15 15 15h63.889c8.284 0 15-6.716 15-15v-26.869a157.41 157.41 0 0 0 27.093-11.246l15.232 15.232c-31.707 75.922 27.796 164.09 110.372 162.8 157.397-5.968 157.37-231.679-.002-237.629zm-112.528 30.244a14.999 14.999 0 0 0-18.604-2.083c-12.329 7.77-25.75 13.34-39.89 16.556a15 15 0 0 0-11.673 14.626v23.367h-33.889v-23.367a15 15 0 0 0-11.673-14.626 127.856 127.856 0 0 1-39.898-16.556 15 15 0 0 0-18.604 2.083l-16.546 16.546-23.958-23.958 16.546-16.546a15 15 0 0 0 2.084-18.604 127.858 127.858 0 0 1-16.557-39.898 15 15 0 0 0-14.626-11.673H30.394V176.6h23.367a15 15 0 0 0 14.626-11.673 127.83 127.83 0 0 1 16.557-39.898 15 15 0 0 0-2.084-18.604L66.315 89.879 90.273 65.92l16.546 16.546a15 15 0 0 0 18.609 2.081 127.478 127.478 0 0 1 39.886-16.552 15 15 0 0 0 11.68-14.628V30h33.889v23.367a15 15 0 0 0 11.673 14.626 127.64 127.64 0 0 1 39.885 16.553 14.999 14.999 0 0 0 18.609-2.081l16.547-16.547 23.964 23.96-16.545 16.545a15 15 0 0 0-2.084 18.604c7.771 12.331 13.337 25.752 16.547 39.892a15 15 0 0 0 14.628 11.68h23.375v33.881h-23.375a15 15 0 0 0-14.628 11.68c-3.209 14.14-8.776 27.562-16.547 39.891a15.001 15.001 0 0 0 2.083 18.604L321.56 297.2l-23.964 23.96zM393.579 482c-48.973 0-88.814-39.842-88.814-88.815 4.465-117.663 173.182-117.63 177.63.001-.001 48.972-39.843 88.814-88.816 88.814z" fill="#0280d8" opacity="1" data-original="#000000" class=""></path><path d="m414.118 361.812-30.92 30.919-10.16-10.155c-5.859-5.857-15.357-5.855-21.213.004-5.857 5.859-5.855 15.356.004 21.213l20.766 20.758c5.858 5.856 15.354 5.856 21.211-.002l41.524-41.524c5.858-5.858 5.858-15.355 0-21.213-5.856-5.858-15.354-5.858-21.212 0zM193.935 98.682c-52.301 0-94.852 42.554-94.852 94.859 4.769 125.675 184.961 125.633 189.711-.001.001-52.305-42.553-94.858-94.859-94.858zm0 159.718c-35.759 0-64.852-29.096-64.852-64.859 3.26-85.931 126.463-85.899 129.711.001.001 35.763-29.095 64.858-64.859 64.858z" fill="#0280d8" opacity="1" data-original="#000000" class=""></path></g></svg>