<svg xmlns="http://www.w3.org/2000/svg" version="1.1" xmlns:xlink="http://www.w3.org/1999/xlink" width="512" height="512" x="0" y="0" viewBox="0 0 32 32" style="enable-background:new 0 0 512 512" xml:space="preserve"><g><path d="M27 29H5c-2.206 0-4-1.794-4-4v-4c0-2.206 1.794-4 4-4h22c2.206 0 4 1.794 4 4v4c0 2.206-1.794 4-4 4zM5 19c-1.103 0-2 .897-2 2v4c0 1.103.897 2 2 2h22c1.103 0 2-.897 2-2v-4c0-1.103-.897-2-2-2zm8 4a1 1 0 0 0-1-1H7a1 1 0 1 0 0 2h5a1 1 0 0 0 1-1zm12-1a1 1 0 1 0 0 2 1 1 0 0 0 0-2zm-4 0a1 1 0 1 0 0 2 1 1 0 0 0 0-2zm2.777-14.363a1 1 0 0 0 0-1.414C21.698 4.145 18.937 3 16 3s-5.698 1.145-7.777 3.223a1 1 0 1 0 1.414 1.414C11.337 5.937 13.597 5 16 5s4.662.937 6.363 2.637a.997.997 0 0 0 1.414 0zm-2.833 2.833a1 1 0 0 0 .007-1.414C19.637 7.73 17.878 7 16 7s-3.637.73-4.95 2.056a1 1 0 0 0 1.42 1.408C13.405 9.52 14.66 9 16 9s2.595.52 3.53 1.464a.998.998 0 0 0 1.414.006zm-2.836 2.837a1 1 0 0 0 .018-1.414c-1.12-1.153-3.132-1.153-4.252 0a1 1 0 1 0 1.432 1.394c.361-.369 1.027-.369 1.388 0a.997.997 0 0 0 1.414.02z" fill="#0280d8" opacity="1" data-original="#000000"></path></g></svg>