<svg width="171" height="171" viewBox="0 0 171 171" fill="none" xmlns="http://www.w3.org/2000/svg">
<g clip-path="url(#clip0_304_117)">
<path d="M85.5 85.5C93.9552 85.5 102.22 82.9928 109.251 78.2953C116.281 73.5979 121.76 66.9213 124.996 59.1097C128.232 51.2982 129.078 42.7026 127.429 34.4099C125.779 26.1172 121.708 18.4999 115.729 12.5212C109.75 6.54251 102.133 2.47097 93.8401 0.821448C85.5474 -0.82807 76.9518 0.018523 69.1403 3.25417C61.3287 6.48982 54.6521 11.9692 49.9547 18.9994C45.2572 26.0296 42.75 34.2949 42.75 42.75C42.7613 54.0846 47.269 64.9516 55.2837 72.9663C63.2984 80.9811 74.1655 85.4887 85.5 85.5ZM85.5 14.25C91.1368 14.25 96.6469 15.9215 101.334 19.0531C106.021 22.1848 109.673 26.6358 111.831 31.8435C113.988 37.0512 114.552 42.7816 113.452 48.3101C112.353 53.8386 109.638 58.9168 105.653 62.9026C101.667 66.8884 96.5885 69.6027 91.0601 70.7024C85.5316 71.8021 79.8012 71.2377 74.5935 69.0806C69.3858 66.9235 64.9347 63.2706 61.8031 58.5838C58.6715 53.897 57 48.3868 57 42.75C57 35.1914 60.0027 27.9423 65.3475 22.5975C70.6922 17.2527 77.9413 14.25 85.5 14.25Z" fill="#0280D8"/>
<path d="M85.5 99.75C68.4988 99.7689 52.1993 106.531 40.1776 118.553C28.1559 130.574 21.3939 146.874 21.375 163.875C21.375 165.765 22.1257 167.577 23.4619 168.913C24.7981 170.249 26.6103 171 28.5 171C30.3897 171 32.2019 170.249 33.5381 168.913C34.8743 167.577 35.625 165.765 35.625 163.875C35.625 150.647 40.8797 137.961 50.233 128.608C59.5864 119.255 72.2723 114 85.5 114C98.7277 114 111.414 119.255 120.767 128.608C130.12 137.961 135.375 150.647 135.375 163.875C135.375 165.765 136.126 167.577 137.462 168.913C138.798 170.249 140.61 171 142.5 171C144.39 171 146.202 170.249 147.538 168.913C148.874 167.577 149.625 165.765 149.625 163.875C149.606 146.874 142.844 130.574 130.822 118.553C118.801 106.531 102.501 99.7689 85.5 99.75Z" fill="#0280D8"/>
</g>
<defs>
<clipPath id="clip0_304_117">
<rect width="171" height="171" fill="white"/>
</clipPath>
</defs>
</svg>
