<svg width="72" height="72" viewBox="0 0 72 72" fill="none" xmlns="http://www.w3.org/2000/svg">
<circle cx="36" cy="36" r="36" fill="#B4EDF9" fill-opacity="0.23"/>
<path d="M50.4687 47.1255C49.5505 44.4135 48.4075 40.9727 43.9688 40.9727H41.5653C42.283 40.3985 42.9341 39.7454 43.4473 38.9805H43.9688C46.7149 38.9805 48.9493 36.7461 48.9493 34C48.9493 32.5581 48.9493 31.4574 48.9493 30.0156C48.9493 22.8756 43.1401 17 36.0001 17C28.6974 17 22.9523 23.0705 23.0519 30.1839C23.0507 32.3774 23.0509 31.5799 23.0509 34C23.0509 36.7461 25.2852 38.9805 28.0313 38.9805H28.5528C29.0661 39.7454 29.7172 40.3985 30.4348 40.9727H28.0313C23.5927 40.9727 22.4497 44.4135 21.5314 47.1246C20.8821 49.0409 22.3871 51 24.3913 51H47.6089C49.6199 51 51.116 49.0338 50.4687 47.1255ZM27.1359 29.0195H26.0391C25.7195 29.0195 25.4172 29.0832 25.1282 29.1766C25.586 23.1846 30.4979 18.9922 36.0001 18.9922C41.7632 18.9922 46.4904 23.5336 46.9153 29.19C46.6139 29.0875 46.2966 29.0195 45.961 29.0195H44.8643C44.3614 24.5494 40.6025 20.9844 36.0001 20.9844C31.3977 20.9844 27.6388 24.5494 27.1359 29.0195ZM36.0001 48.3434L32.0153 42.9648H39.9848L36.0001 48.3434ZM36.0001 40.9727C32.1558 40.9727 29.0274 37.8443 29.0274 34V33.0039H32.0157C33.6506 33.0039 35.0915 32.2014 36.0001 30.981C36.9087 32.2014 38.3495 33.0039 39.9845 33.0039H42.9727V34C42.9727 35.0735 42.7086 36.079 42.2733 36.9883H37.9923C37.4417 36.9883 36.9962 37.4338 36.9962 37.9844C36.9962 38.5349 37.4417 38.9738 37.9923 38.9738H40.8644C39.6068 40.2023 37.8925 40.9727 36.0001 40.9727Z" fill="#0280D8"/>
</svg>
