<svg width="72" height="72" viewBox="0 0 72 72" fill="none" xmlns="http://www.w3.org/2000/svg">
<circle cx="36" cy="36" r="36" fill="#B4EDF9" fill-opacity="0.23"/>
<g clip-path="url(#clip0_302_65)">
<path d="M35.9999 29.2408C32.2707 29.2408 29.2407 32.2708 29.2407 36C29.2407 39.7292 32.2707 42.7592 35.9999 42.7592C39.7291 42.7592 42.759 39.7292 42.759 36C42.759 32.2708 39.7291 29.2408 35.9999 29.2408ZM35.4871 33.9956C34.648 33.9956 33.9488 34.6948 33.9488 35.5339H31.7113C31.7579 33.4362 33.4361 31.758 35.4871 31.758V33.9956Z" fill="#0280D8"/>
<path d="M56.5105 34.6016C54.2264 31.758 46.0688 22.4817 36 22.4817C25.9312 22.4817 17.7736 31.758 15.4895 34.6016C14.8368 35.394 14.8368 36.5594 15.4895 37.3984C17.7736 40.242 25.9312 49.5183 36 49.5183C46.0688 49.5183 54.2264 40.242 56.5105 37.3984C57.1632 36.606 57.1632 35.4406 56.5105 34.6016ZM36 45.7891C30.5927 45.7891 26.2109 41.4073 26.2109 36C26.2109 30.5927 30.5927 26.2109 36 26.2109C41.4073 26.2109 45.7891 30.5927 45.7891 36C45.7891 41.4073 41.4073 45.7891 36 45.7891Z" fill="#0280D8"/>
</g>
<defs>
<clipPath id="clip0_302_65">
<rect width="42" height="42" fill="white" transform="translate(15 15)"/>
</clipPath>
</defs>
</svg>
