<svg width="72" height="72" viewBox="0 0 72 72" fill="none" xmlns="http://www.w3.org/2000/svg">
<circle cx="36" cy="36" r="36" fill="#B4EDF9" fill-opacity="0.23"/>
<g clip-path="url(#clip0_220_43)">
<path d="M35.5918 50.1754C38.1082 50.1754 40.148 48.1355 40.148 45.6192C40.148 43.1029 38.1082 41.063 35.5918 41.063C33.0755 41.063 31.0356 43.1029 31.0356 45.6192C31.0356 48.1355 33.0755 50.1754 35.5918 50.1754Z" fill="#0280D8"/>
<path d="M46.4806 34.6417C46.413 34.5722 46.3416 34.5102 46.2721 34.4464L46.0674 34.2529C46.0336 34.2172 45.9961 34.191 45.9529 34.1571C40.0614 28.8046 31.0447 29.0169 25.4218 34.6398L24.7626 35.3009L23.8499 36.2136C22.738 37.3254 22.7437 39.1378 23.8574 40.2515C24.9729 41.3689 26.7853 41.3708 27.8952 40.259L29.469 38.6852C33.0449 35.1112 38.8613 35.1112 42.4352 38.6833L43.5715 39.7838C44.672 40.8844 46.4675 40.8825 47.5736 39.7745C48.1089 39.2411 48.4037 38.5293 48.4056 37.7724C48.4075 37.0193 48.1164 36.3075 47.5812 35.776L46.4806 34.6417Z" fill="#0280D8"/>
<path d="M54.2429 29.0095L53.2963 28.0629C53.2926 28.0592 53.2907 28.0535 53.2832 28.0516L52.5357 27.3004C52.4043 27.1708 52.2615 27.0582 52.1113 26.9605C42.5087 18.5298 27.903 18.789 18.6065 27.7324C18.5614 27.7737 18.5107 27.8019 18.4657 27.8469L16.7566 29.5579C15.7425 30.5701 15.7481 32.2172 16.7679 33.237C17.7858 34.2549 19.4329 34.2624 20.447 33.2464L22.1561 31.5392C22.1673 31.5242 22.1767 31.5111 22.188 31.5017C29.7059 24.2392 41.6317 24.1941 49.2097 31.3533L50.5544 32.6999C51.5666 33.7122 53.2175 33.7084 54.2354 32.6905C55.2514 31.6707 55.2552 30.0217 54.2429 29.0095Z" fill="#0280D8"/>
</g>
<defs>
<clipPath id="clip0_220_43">
<rect width="39" height="39" fill="white" transform="translate(16 16)"/>
</clipPath>
</defs>
</svg>
