<svg width="58" height="44" viewBox="0 0 58 44" fill="none" xmlns="http://www.w3.org/2000/svg">
<path d="M24.1667 38.9164C24.1667 36.2581 26.3417 34.0831 29 34.0831C31.6583 34.0831 33.8333 36.2581 33.8333 38.9164C33.8333 41.5748 31.6583 43.7498 29 43.7498C26.3417 43.7498 24.1667 41.5748 24.1667 38.9164ZM57.2267 16.0548C58.2175 15.1364 58.2658 13.6139 57.3475 12.6473C50.0492 4.79309 39.7058 0.273926 29 0.273926C18.2942 0.273926 7.95083 4.76892 0.6525 12.6231C-0.265833 13.6139 -0.193333 15.1364 0.773334 16.0306C1.74 16.9489 3.28667 16.8764 4.18083 15.9098C10.5608 9.02226 19.5992 5.08309 29 5.08309C38.4008 5.08309 47.415 9.02226 53.8192 15.9098C54.3025 16.4173 54.9308 16.6831 55.5833 16.6831C56.1633 16.6831 56.7675 16.4656 57.2267 16.0306V16.0548ZM45.1192 27.6789C46.11 26.7606 46.1583 25.2381 45.24 24.2714C41.0592 19.7523 35.1383 17.1664 29 17.1664C22.8617 17.1664 16.9408 19.7523 12.76 24.2714C11.8417 25.2381 11.9142 26.7848 12.8808 27.6789C13.8475 28.5973 15.3942 28.5248 16.2883 27.5581C19.5508 24.0298 24.1908 22.0239 29 22.0239C33.8092 22.0239 38.425 24.0539 41.7117 27.5581C42.195 28.0656 42.8233 28.3314 43.4758 28.3314C44.0558 28.3314 44.66 28.1139 45.1192 27.6789Z" fill="#0280D8"/>
</svg>
