<svg width="112" height="112" viewBox="0 0 112 112" fill="none" xmlns="http://www.w3.org/2000/svg">
<g filter="url(#filter0_d_356_2)">
<circle cx="56" cy="52" r="36" fill="#0280D8"/>
<g clip-path="url(#clip0_356_2)">
<path d="M55.6011 67.6804C58.3755 67.6804 60.6246 65.4313 60.6246 62.6569C60.6246 59.8825 58.3755 57.6334 55.6011 57.6334C52.8267 57.6334 50.5776 59.8825 50.5776 62.6569C50.5776 65.4313 52.8267 67.6804 55.6011 67.6804Z" fill="white"/>
<path d="M67.6071 50.5538C67.5326 50.4772 67.4539 50.4088 67.3773 50.3384L67.1516 50.1252C67.1143 50.0858 67.0729 50.0568 67.0253 50.0195C60.5295 44.1181 50.5881 44.3521 44.3885 50.5517L43.6616 51.2806L42.6553 52.287C41.4294 53.5128 41.4357 55.511 42.6636 56.7389C43.8936 57.971 45.8918 57.9731 47.1156 56.7472L48.8508 55.012C52.7934 51.0715 59.2063 51.0715 63.1469 55.0099L64.3996 56.2233C65.6131 57.4368 67.5926 57.4347 68.8123 56.213C69.4024 55.6249 69.7275 54.8401 69.7296 54.0056C69.7317 53.1753 69.4107 52.3905 68.8206 51.8045L67.6071 50.5538Z" fill="white"/>
<path d="M76.1653 44.3437L75.1217 43.3001C75.1175 43.296 75.1155 43.2897 75.1072 43.2877L74.283 42.4594C74.1381 42.3165 73.9807 42.1923 73.8151 42.0846C63.2276 32.7893 47.1238 33.075 36.8739 42.9357C36.8242 42.9812 36.7683 43.0123 36.7186 43.062L34.8343 44.9484C33.7161 46.0645 33.7223 47.8805 34.8467 49.0049C35.969 50.1272 37.785 50.1355 38.9032 49.0152L40.7875 47.1329C40.7999 47.1164 40.8103 47.1019 40.8227 47.0915C49.1117 39.0842 62.2606 39.0345 70.6158 46.928L72.0985 48.4126C73.2146 49.5287 75.0347 49.5246 76.157 48.4023C77.2773 47.2779 77.2814 45.4598 76.1653 44.3437Z" fill="white"/>
</g>
</g>
<defs>
<filter id="filter0_d_356_2" x="0" y="0" width="112" height="112" filterUnits="userSpaceOnUse" color-interpolation-filters="sRGB">
<feFlood flood-opacity="0" result="BackgroundImageFix"/>
<feColorMatrix in="SourceAlpha" type="matrix" values="0 0 0 0 0 0 0 0 0 0 0 0 0 0 0 0 0 0 127 0" result="hardAlpha"/>
<feOffset dy="4"/>
<feGaussianBlur stdDeviation="10"/>
<feComposite in2="hardAlpha" operator="out"/>
<feColorMatrix type="matrix" values="0 0 0 0 0.00784314 0 0 0 0 0.501961 0 0 0 0 0.847059 0 0 0 0.23 0"/>
<feBlend mode="normal" in2="BackgroundImageFix" result="effect1_dropShadow_356_2"/>
<feBlend mode="normal" in="SourceGraphic" in2="effect1_dropShadow_356_2" result="shape"/>
</filter>
<clipPath id="clip0_356_2">
<rect width="43" height="43" fill="white" transform="translate(34 30)"/>
</clipPath>
</defs>
</svg>
