<svg width="51" height="51" viewBox="0 0 51 51" fill="none" xmlns="http://www.w3.org/2000/svg">
<circle cx="25.5" cy="25.5" r="25.5" fill="url(#paint0_linear_206_6)"/>
<g clip-path="url(#clip0_206_6)">
<path d="M23.3751 32.9375C23.3751 31.7687 24.3314 30.8125 25.5001 30.8125C26.6689 30.8125 27.6251 31.7687 27.6251 32.9375C27.6251 34.1062 26.6689 35.0625 25.5001 35.0625C24.3314 35.0625 23.3751 34.1062 23.3751 32.9375ZM37.9101 22.8862C38.3457 22.4825 38.367 21.8131 37.9632 21.3881C34.7545 17.935 30.207 15.9481 25.5001 15.9481C20.7932 15.9481 16.2457 17.9244 13.037 21.3775C12.6332 21.8131 12.6651 22.4825 13.0901 22.8756C13.5151 23.2794 14.1951 23.2475 14.5882 22.8225C17.3932 19.7944 21.367 18.0625 25.5001 18.0625C29.6332 18.0625 33.5964 19.7944 36.412 22.8225C36.6245 23.0456 36.9007 23.1625 37.1876 23.1625C37.4426 23.1625 37.7082 23.0669 37.9101 22.8756V22.8862ZM32.587 27.9969C33.0226 27.5931 33.0439 26.9237 32.6401 26.4987C30.802 24.5119 28.1989 23.375 25.5001 23.375C22.8014 23.375 20.1982 24.5119 18.3601 26.4987C17.9564 26.9237 17.9882 27.6037 18.4132 27.9969C18.8382 28.4006 19.5182 28.3687 19.9114 27.9437C21.3457 26.3925 23.3857 25.5106 25.5001 25.5106C27.6145 25.5106 29.6439 26.4031 31.0889 27.9437C31.3014 28.1669 31.5776 28.2837 31.8645 28.2837C32.1195 28.2837 32.3851 28.1881 32.587 27.9969Z" fill="black"/>
</g>
<defs>
<linearGradient id="paint0_linear_206_6" x1="9.32927" y1="8.08537" x2="60.0313" y2="56.3125" gradientUnits="userSpaceOnUse">
<stop stop-color="#28B8DB"/>
<stop offset="1" stop-color="#B4EDF9" stop-opacity="0.23"/>
</linearGradient>
<clipPath id="clip0_206_6">
<rect width="25.5" height="25.5" fill="white" transform="translate(12.75 12.75)"/>
</clipPath>
</defs>
</svg>
