<svg xmlns="http://www.w3.org/2000/svg" version="1.1" xmlns:xlink="http://www.w3.org/1999/xlink" width="25" height="25" x="0" y="0" viewBox="0 0 682.667 682.667" style="enable-background:new 0 0 512 512" xml:space="preserve" class=""><g><defs><clipPath id="a" clipPathUnits="userSpaceOnUse"><path d="M0 512h512V0H0Z" fill="#ffffff" opacity="1" data-original="#000000"></path></clipPath></defs><g clip-path="url(#a)" transform="matrix(1.33333 0 0 -1.33333 0 682.667)"><path d="M0 0c-5.543 20.867-21.876 37.301-42.614 42.879-37.588 10.134-188.314 10.134-188.314 10.134s-150.726 0-188.314-10.134C-439.98 37.301-456.313 20.867-461.856 0c-10.072-37.823-10.072-116.736-10.072-116.736s0-78.914 10.072-116.737c5.543-20.867 21.876-37.301 42.614-42.879 37.588-10.135 188.314-10.135 188.314-10.135s150.726 0 188.314 10.135C-21.876-270.774-5.543-254.34 0-233.473c10.072 37.823 10.072 116.737 10.072 116.737S10.072-37.823 0 0z" style="stroke-width:30;stroke-linecap:butt;stroke-linejoin:miter;stroke-miterlimit:10;stroke-dasharray:none;stroke-opacity:1" transform="translate(486.928 372.736)" fill="none" stroke="#ffffff" stroke-width="30" stroke-linecap="butt" stroke-linejoin="miter" stroke-miterlimit="10" stroke-dasharray="none" stroke-opacity="" data-original="#000000" opacity="1" class=""></path><path d="m0 0 126 71.748L0 143.5Z" style="stroke-width:30;stroke-linecap:butt;stroke-linejoin:miter;stroke-miterlimit:10;stroke-dasharray:none;stroke-opacity:1" transform="translate(206.682 184.25)" fill="none" stroke="#ffffff" stroke-width="30" stroke-linecap="butt" stroke-linejoin="miter" stroke-miterlimit="10" stroke-dasharray="none" stroke-opacity="" data-original="#000000" opacity="1" class=""></path></g></g></svg>